<?xml version="1.0" encoding="utf-8"?>
<!-- Generator: Adobe Illustrator 18.1.0, SVG Export Plug-In . SVG Version: 6.00 Build 0)  -->
<svg version="1.1" id="Lifts" xmlns="http://www.w3.org/2000/svg" xmlns:xlink="http://www.w3.org/1999/xlink" x="0px" y="0px"
	 viewBox="0 0 100 100" enable-background="new 0 0 100 100" xml:space="preserve">
<g id="Boundary">
	<path d="M98.8,0.9v97.8H1.2V0.9H98.8 M99.8-0.1H0.2v99.8h99.7L99.8-0.1L99.8-0.1z"/>
</g>
<g id="Rope_Tow">
	<circle stroke="#000000" cx="32.5" cy="22.5" r="5"/>
	<path stroke="#000000" d="M39,45.4c0.4,2.1-1.1,4-3.3,4.4l0,0c-2.2,0.4-4.2-1-4.6-3L28.8,33c-0.4-2.1,1.1-4,3.3-4.4l0,0
		c2.2-0.4,4.2,1,4.6,3L39,45.4z"/>
	<path stroke="#000000" d="M57.1,30.4c0,1.1-0.9,2-1.9,2H32.8c-1,0-1.9-0.9-1.9-2l0,0c0-1.1,0.9-2,1.9-2h22.4
		C56.3,28.4,57.1,29.3,57.1,30.4L57.1,30.4z"/>
	<path stroke="#000000" d="M54.3,68.7c0.2,0.8-0.3,1.6-1.2,1.9l0,0c-0.9,0.2-1.7-0.2-2-1l-4.2-16c-0.2-0.8,0.3-1.6,1.2-1.9l0,0
		c0.9-0.2,1.7,0.2,2,1L54.3,68.7z"/>
	<path stroke="#000000" d="M50,53.6c-0.6,1.3-2.1,1.8-3.3,1.2l-12.3-5.1c-1.3-0.6-0.5-2.1,0-3.3l0,0c0.6-1.3,2.1-1.8,3.2-1.4
		l11.1,5.1C50,50.9,50.6,52.4,50,53.6L50,53.6z"/>
	<ellipse stroke="#000000" cx="43.3" cy="55.5" rx="2.1" ry="2.1"/>
	<g>
		<rect x="54.3" y="4.6" transform="matrix(-0.9021 -0.4314 0.4314 -0.9021 91.8837 81.7035)" width="1.8" height="51.7"/>
	</g>
	<g>
		<rect x="54.7" y="44.2" transform="matrix(-0.2937 -0.9559 0.9559 -0.2937 3.6961 145.4691)" width="1.8" height="54.3"/>
	</g>
	<g>
		<path d="M79.8,64.7L79.7,63c1.7-0.1,2.9-1.5,2.8-3.2l1.8-0.1C84.5,62.3,82.5,64.6,79.8,64.7z"/>
	</g>
</g>
<text transform="matrix(1 0 0 1 21.7481 93.5)" font-family="'MyriadPro-Regular'" font-size="14">Rope Tow</text>
</svg>
