<?xml version="1.0" encoding="utf-8"?>
<!-- Generator: Adobe Illustrator 18.1.0, SVG Export Plug-In . SVG Version: 6.00 Build 0)  -->
<svg version="1.1" id="Lifts" xmlns="http://www.w3.org/2000/svg" xmlns:xlink="http://www.w3.org/1999/xlink" x="0px" y="0px"
	 viewBox="0 0 100 100" enable-background="new 0 0 100 100" xml:space="preserve">
<g id="Boundary">
	<path d="M98.9,1v97.7H1.2V1H98.9 M99.9,0H0.2v99.7h99.7V0L99.9,0z"/>
</g>
<g id="Snowmobile_1_">
	<circle cx="73.5" cy="36.4" r="3.7"/>
	<path stroke="#000000" d="M66.7,60.6l-1.4-0.4c-1.1-0.3-1.8-1.5-1.8-1.9l4.3-16.2c0.6-1.8,1.8-2.5,2.9-2.2l1.4,0.4
		c1.1,0.3,1.8,1.5,1.5,2.6l-4.3,16.2C68.9,60.3,67.8,60.9,66.7,60.6z"/>
	<polygon points="72.2,46.1 81.4,52.5 80.1,55.1 71.2,50.3 	"/>
	<polygon points="69.8,53.1 77.2,60.7 71.5,64.3 67.6,59.3 	"/>
	<path d="M78.5,44.4c0,0-0.8,0,0.9,0s2.4,5.3,2.4,5.3s9.6,4.6,11.9,5.3c2.3,0.7,0,4.4,0,4.4L85.6,67c0,0,7.6,8.2,10.9-0.7
		c0.9-0.1,0.9-0.1,0.9-0.1S96,71.4,93,71.5c-3,0.1-19.4,0-19.4,0l0-1.1l9.3,0l1.4-3.3L46,67.1c0,0,0.2-7.8,3.4-9.4
		c0-1.9-0.2-4-0.2-4l1.5-0.1l1.8,3.7l9.9,0l10.9,0l6-7.6L78.5,44.4z"/>
	<path d="M46.2,68.1h24L69.6,70c0,0-0.4,1.6-1.4,1.6c-1,0-18.8,0-19.7,0S47,70,47,70L46.2,68.1z"/>
	<path d="M39.7,56.5c2.1,0.6,0,4,0,4l-7.3,6.9c0,0,6.9,7.4,9.9-0.6c0.8-0.1,0.8-0.1,0.8-0.1s-1.3,4.7-4.1,4.8
		c-2.8,0.1-17.7,0-17.7,0l0-1l8.5,0l1.3-3l-28.5,0c0,0,0.2-7.1,3.1-8.6c0-1.7-0.2-3.6-0.2-3.6l1.4-0.1l1.7,3.3l12.6,0
		C21.2,58.5,37.7,55.9,39.7,56.5z"/>
	<path d="M2.8,68.4h18.1L20.2,70c0,0-0.4,1.6-1.4,1.6s-12.8,0-13.7,0S3.5,70,3.5,70L2.8,68.4z"/>
	<polygon points="36.8,63.3 47.7,63.3 47.7,64.3 34.4,64.3 34.4,63.4 	"/>
	<path d="M18,59c0-1.7-0.2-3.6-0.2-3.6L19,55l2.3,4.4"/>
	<circle cx="11" cy="54.7" r="3.1"/>
	<circle cx="23.2" cy="54.3" r="3.1"/>
</g>
<text transform="matrix(1 0 0 1 12.5464 93.4994)" font-family="'MyriadPro-Regular'" font-size="14">Snowmobile</text>
</svg>
