<?xml version="1.0" encoding="utf-8"?>
<!-- Generator: Adobe Illustrator 18.1.0, SVG Export Plug-In . SVG Version: 6.00 Build 0)  -->
<svg version="1.1" id="Lifts" xmlns="http://www.w3.org/2000/svg" xmlns:xlink="http://www.w3.org/1999/xlink" x="0px" y="0px"
	 viewBox="0 0 100 100" enable-background="new 0 0 100 100" xml:space="preserve">
<g id="Boundary">
	<path d="M98.8,0.9v97.8H1.2V0.9H98.8 M99.8-0.1H0.2v99.8h99.7L99.8-0.1L99.8-0.1z"/>
</g>
<g id="Quad">
	<g>
		<path d="M50.4,16.9c0,1.3-1.1,2.4-2.4,2.4l0,0c-1.3,0-2.4-1.1-2.4-2.4l0,0c0-1.3,1.1-2.4,2.4-2.4l0,0
			C49.4,14.5,50.4,15.6,50.4,16.9L50.4,16.9z"/>
		<path d="M48,19.4c-1.4,0-2.5-1.1-2.5-2.5s1.1-2.5,2.5-2.5s2.5,1.1,2.5,2.5S49.4,19.4,48,19.4z M48,14.6c-1.3,0-2.3,1-2.3,2.3
			s1,2.3,2.3,2.3s2.3-1,2.3-2.3S49.3,14.6,48,14.6z"/>
	</g>
	<g>
		<path d="M75.1,78.4H25.2c-6,0-10.9-5-10.9-11v-13c0-6.1,4.9-11,10.9-11h49.9c6,0,10.9,5,10.9,11v13C86,73.5,81.1,78.4,75.1,78.4z
			 M25.2,45.7c-4.7,0-8.4,3.9-8.4,8.6v13c0,4.7,3.8,8.6,8.4,8.6h49.9c4.7,0,8.4-3.9,8.4-8.6v-13c0-4.7-3.8-8.6-8.4-8.6
			C75.1,45.7,25.2,45.7,25.2,45.7z"/>
	</g>
	<g>
		<path d="M63.8,18.7c-2-1.9-4.7-3.1-7.8-3.1h-7.1c-0.3,0-0.5,0-0.8,0v2.1c0.3,0,0.5,0,0.8,0H56c2.5,0,4.7,1,6.3,2.6
			s2.6,3.7,2.6,6.1v7l0,0c0,2.4-1,4.6-2.6,6.1C60.8,41,58.5,42,56.1,42h-2.3v2.1h2.3c3,0,5.8-1.2,7.8-3.1c2-1.9,3.2-4.6,3.2-7.6l0,0
			v-7C67.1,23.3,65.8,20.6,63.8,18.7z"/>
	</g>
	<path d="M59.9,42H44c0,0-0.5-0.1-0.5,0.6c0,0.7,0,1.8,0,1.8L54.3,44L59.9,42z"/>
	<path d="M55.5,43.3"/>
	<rect x="13.6" y="59.7" width="73.2" height="5.8"/>
	<g>
		<path d="M86.9,73.9c0,0.5-0.4,0.9-0.9,0.9H14.4c-0.5,0-0.9-0.4-0.9-0.9v-3.8c0-0.5,0.4-0.9,0.9-0.9h71.7c0.5,0,0.9,0.4,0.9,0.9
			L86.9,73.9L86.9,73.9z"/>
		<path d="M86,74.8H14.4c-0.5,0-1-0.4-1-1V70c0-0.5,0.4-1,1-1h71.7c0.5,0,1,0.4,1,1v3.8C87,74.4,86.5,74.8,86,74.8z M14.4,69.3
			c-0.5,0-0.8,0.4-0.8,0.8v3.8c0,0.4,0.4,0.8,0.8,0.8h71.7c0.5,0,0.8-0.4,0.8-0.8v-3.8c0-0.4-0.4-0.8-0.8-0.8H14.4z"/>
	</g>
	<g>
		<path d="M87.9,74.1c0,0.4-0.4,0.8-0.8,0.9h-74c-0.4-0.1-0.8-0.5-0.8-0.9l0,0c0-0.4,0.4-0.8,0.8-0.8h74
			C87.5,73.3,87.9,73.7,87.9,74.1L87.9,74.1z"/>
		<path d="M87.1,75.1H13c-0.5-0.1-0.9-0.5-0.9-1s0.4-0.9,0.9-0.9h74c0.5,0,0.9,0.4,0.9,0.9C88,74.6,87.6,75,87.1,75.1L87.1,75.1z
			 M13.1,75h74c0.4-0.1,0.7-0.5,0.7-0.8c0-0.4-0.3-0.7-0.7-0.7h-74c-0.4,0-0.7,0.3-0.7,0.7C12.4,74.5,12.7,74.8,13.1,75z"/>
	</g>
</g>
<text transform="matrix(1 0 0 1 25.4514 93.3333)" font-family="'MyriadPro-Regular'" font-size="14">Sublette</text>
</svg>
