<?xml version="1.0" encoding="utf-8"?>
<!-- Generator: Adobe Illustrator 18.1.0, SVG Export Plug-In . SVG Version: 6.00 Build 0)  -->
<svg version="1.1" id="Icons" xmlns="http://www.w3.org/2000/svg" xmlns:xlink="http://www.w3.org/1999/xlink" x="0px" y="0px"
	 viewBox="0 0 100 100" enable-background="new 0 0 100 100" xml:space="preserve">
<g id="Boundary">
	<path d="M98.9,1v97.7H1.2V1H98.9 M99.9,0H0.2v99.7h99.7V0L99.9,0z"/>
</g>
<g id="Disciplines">
	<g id="Skier">
		<g id="Ski_2_">
			<path d="M13.4,72.6L13.4,72.6c0-0.7,0.6-1.2,1.3-1.1l60.6,3.3l-0.1,2.4l-60.7-3.3C13.9,73.8,13.4,73.3,13.4,72.6z"/>
			<path d="M72.5,76.9l0.7-2.3c2.2,0.6,4.5-0.6,5.1-2.7l2.4,0.7C79.6,76,76,77.9,72.5,76.9z"/>
		</g>
		<circle cx="61.3" cy="14.1" r="6"/>
		<path d="M46.5,58.2l-9.4-14.8c-1.2-2.2-0.4-5,1.7-6.2l0,0C41,36,43.8,36.8,45,39l8.8,15.9c1.2,2.2,0.4,5-1.7,6.2l0,0
			C49.9,62.3,47.7,60.3,46.5,58.2z"/>
		<path d="M48.8,55.8L37.7,72.7c-0.7,1.1,2.1,0.9,3.4,1.6l0.5,0.3c1.3,0.8,2.9,0.5,3.6-0.7l8.9-15c-0.8,1.4-1.5-3.7-1.1-3.5
			l-0.5-0.3C51.1,54.4,49.5,54.7,48.8,55.8z"/>
		<path d="M53.6,23L59,35.5c0.4,0.9,1.5,1.3,2.4,0.9l1.5-0.7c0.9-0.4,1.3-1.5,0.9-2.4l-5.4-12.5C58,20,57,19.6,56,20l-1.5,0.7
			C53.6,21,53.2,22.1,53.6,23z"/>
		<path d="M73.4,38.7l-11.1-1.5c-1.7-0.2-3.4-1.1-3.3-1.9l0.1-1.2c0.1-0.9,0.9-1,1.7-0.9L73,34.5c0.9,0.1,1.5,0.9,1.4,1.7l-0.1,1
			C74.2,38.1,73.4,38.7,73.4,38.7z"/>
		<path d="M74.7,38.9l-1.2,0.4c-1,0.4-2.2-0.2-2.6-1.2L70.6,37c-0.4-1,0.2-2.2,1.2-2.6l1.2-0.4c1-0.4,2.2,0.2,2.6,1.2l0.4,1.2
			C76.3,37.4,75.7,38.6,74.7,38.9z"/>
		<path d="M57.8,20c0,0-3.1-3.8-6.3-1.8c-3.2,1.9-11.1,14.7-12.3,16.7c-1.2,2-2.5,5.3-2.5,5.3s8.5,5.2,8.5,5.1
			C45,45.2,61.7,22.5,57.8,20z"/>
	</g>
	<text transform="matrix(1 0 0 1 41.5091 93)" font-family="'MyriadPro-Regular'" font-size="14">Ski</text>
</g>
<line fill="none" stroke="#000000" stroke-width="2" stroke-miterlimit="10" x1="72.5" y1="32.4" x2="76.5" y2="70.2"/>
</svg>
