<?xml version="1.0" encoding="utf-8"?>
<!-- Generator: Adobe Illustrator 18.1.0, SVG Export Plug-In . SVG Version: 6.00 Build 0)  -->
<svg version="1.1" id="Icons" xmlns="http://www.w3.org/2000/svg" xmlns:xlink="http://www.w3.org/1999/xlink" x="0px" y="0px"
	 viewBox="0 0 100 100" enable-background="new 0 0 100 100" xml:space="preserve">
<g id="Boundary">
	<path d="M98.9,1v97.7H1.2V1H98.9 M99.9,0H0.2v99.7h99.7V0L99.9,0z"/>
</g>
<g id="Disciplines">
	<g id="Explorer_1_">
		<g id="Ski_4_">
			<path d="M26,57.5L26,57.5c0.3-0.7,1-1,1.6-0.8l39.1,12.9l-1,2.3L26.5,59C25.9,58.8,25.7,58.2,26,57.5z"/>
			<path d="M64.9,71.5l-0.1-2.4c1.7,1.1,5.9,0.3,7.4-1.8l1.9,1.2C71.8,71.9,67.7,73.2,64.9,71.5z"/>
		</g>
		<circle cx="62.9" cy="26.5" r="5.5"/>
		<path d="M58.6,31.9L58.6,31.9c-2.1-1.7-5.2-1.3-6.9,0.8l-7.2,9.2c-0.3,0.4-0.8,1-1,1.5c-1,1.9,0.1,4.1,1.9,5.4l0,0
			c2.1,1.7,5.2,1.3,6.9-0.8l7.2-9.2C61.1,36.6,60.7,33.5,58.6,31.9z"/>
		<path d="M64.4,45.5L64.4,45.5c-1.3,0.7-2.9,0.3-3.6-0.9l-5.1-8.7c-0.9-1.2-0.7-2.8,0.9-3.6h0c-0.1-1.6,1.2-1.4,3.6,0.9l5.1,8.7
			C66,43.2,65.6,44.8,64.4,45.5z"/>
		<path d="M72.8,44L72.8,44c-0.1,1.5-1.3,2.6-2.7,2.4l-7.3-0.5c-1.5,0-2.4-1.6-2.3-3.1l-0.3,0.3c0.1-1.6,1.3-2.7,3.1-2.5l7.3,0.5
			C71.7,41.3,72.8,42.5,72.8,44z"/>
		<path d="M53.7,56.1l-10.2-8.8c-1.1-0.9-1.2-2.6-0.3-3.7l0.6-0.7c0.9-1.1,2.6-1.2,3.7-0.3l10.2,8.8c1.1,0.9,1.2,2.6,0.3,3.7
			l-0.6,0.7C56.5,57,54.8,57.1,53.7,56.1z"/>
		<path d="M47.6,65.6L46.8,65c-1.3-0.9-1.6-2.7-0.8-4l6.2-9.2c0.9-1.3,2.7-1.6,4-0.8l0.8,0.6c1.3,0.9,1.6,2.7,0.8,4l-6.2,9.2
			C50.7,66.1,48.9,66.5,47.6,65.6z"/>
		<polygon points="47.7,58.6 44.7,63 50.9,66 		"/>
		<g>
			<rect x="70.2" y="40" width="1" height="26"/>
		</g>
	</g>
	<text transform="matrix(1 0 0 1 16.0787 92.875)" font-family="'MyriadPro-Regular'" font-size="14">6-14 y/o Ski</text>
</g>
</svg>
