<?xml version="1.0" encoding="utf-8"?>
<!-- Generator: Adobe Illustrator 18.1.0, SVG Export Plug-In . SVG Version: 6.00 Build 0)  -->
<svg version="1.1" id="Icons" xmlns="http://www.w3.org/2000/svg" xmlns:xlink="http://www.w3.org/1999/xlink" x="0px" y="0px"
	 viewBox="0 0 100 100" enable-background="new 0 0 100 100" xml:space="preserve">
<g id="Boundary">
	<path d="M98.9,1v97.7H1.2V1H98.9 M99.9,0H0.2v99.7h99.7V0L99.9,0z"/>
</g>
<g id="Disciplines">
	<g id="Alp_FS">
		<circle cx="51.3" cy="21.6" r="5.3"/>
		<path d="M47.1,49.9l-0.8,0.8c-2.9-0.5-4.8-3.3-4.3-6.1L44.2,32c0.5-2.9,3.3-4.8,6.1-4.3l0,0c2.9,0.5,4.8,3.3,4.3,6.1l-2.2,12.6
			C51.8,49.3,49.9,50.4,47.1,49.9z"/>
		<path d="M65.2,24.4L61.8,29c-0.1,0.2-0.2,0.3-0.3,0.5c-0.4,1-0.1,2.1,0.8,2.7l0,0c1,0.8,2.5,0.5,3.2-0.5l3.3-4.6
			c0.8-1,0.5-2.5-0.5-3.2l0,0C67.4,23.1,65.9,23.4,65.2,24.4z"/>
		<path d="M39.9,30.9l-6.4,5c-1,0.8-2.5,0.6-3.3-0.4l0,0c-0.8-1-0.6-2.5,0.4-3.3l6.4-5c1-0.8,2.5-0.6,3.3,0.4l0,0
			C41.1,28.7,40.9,30.2,39.9,30.9z"/>
		<path d="M52.5,44.8l6.2,2.1c0,0,1,0.6,1.7,1.7c0.8,1.1,5.9,8.4,5.9,8.4L61.7,61l-6.1-8.8l-8.1-2.8L52.5,44.8z"/>
		<path d="M47.8,49.9l0,5.6c0,0,0.3,0.9-1.4,1.9c-1.6,1-10.5,7.1-10.5,7.1l-3.4-5l9.3-6.4l0.1-7.5L47.8,49.9z"/>
		<polygon points="38.4,26.8 49.1,28 44.4,32.6 37.4,31.9 		"/>
		<path d="M61.7,29.9l-6.5-1.1c0,0,1,1,1,1.8s0.1,3.7,0.1,3.7l6.2,0.8c0,0,1.4,0,1.8-1c0.5-1,4.2-6.3,4.2-6.3L61.7,29.9z"/>
		<path fill="none" stroke="#000000" stroke-width="2" stroke-linecap="round" stroke-miterlimit="10" d="M49.7,71.4l25.9-22.3
			c0,0,4.1-3.7,2.8-9.4"/>
		<path fill="none" stroke="#000000" stroke-width="2" stroke-linecap="round" stroke-miterlimit="10" d="M23.9,46.4L42.7,75
			c0,0,3.2,4.5,8.9,4.1"/>
		<line stroke="#000000" stroke-miterlimit="10" x1="32.2" y1="33.5" x2="7.3" y2="23.2"/>
		<line stroke="#000000" stroke-miterlimit="10" x1="67.9" y1="25.6" x2="92.7" y2="25.6"/>
	</g>
	<text transform="matrix(1 0 0 1 3.5205 92.7083)" font-family="'MyriadPro-Regular'" font-size="14">Alpine Freestyle</text>
</g>
</svg>
