<?xml version="1.0" encoding="utf-8"?>
<!-- Generator: Adobe Illustrator 18.1.0, SVG Export Plug-In . SVG Version: 6.00 Build 0)  -->
<svg version="1.1" id="Icons" xmlns="http://www.w3.org/2000/svg" xmlns:xlink="http://www.w3.org/1999/xlink" x="0px" y="0px"
	 viewBox="0 0 100 100" enable-background="new 0 0 100 100" xml:space="preserve">
<g id="Boundary">
	<path d="M98.9,1v97.7H1.2V1H98.9 M99.9,0H0.2v99.7h99.7V0L99.9,0z"/>
</g>
<g id="Disciplines">
	<g id="DH_skier">
		<g id="Ski_1_">
			<path d="M16.7,44L16.7,44c0.3-0.6,1-0.8,1.6-0.5l53.2,29.3L70.4,75L17.2,45.6C16.7,45.3,16.4,44.6,16.7,44z"/>
			<path d="M68.1,73.5l1.6-1.8c1.7,1.5,4.3,1.4,5.7-0.2l1.8,1.6C74.9,75.8,70.8,76,68.1,73.5z"/>
		</g>
		<circle cx="77.4" cy="21.6" r="6"/>
		<path d="M59.4,51.6l-14.9-9.2c-2-1.4-2.6-4.3-1.1-6.3l0,0c1.4-2,4.3-2.5,6.3-1.1l14.9,10.5c2,1.4,2.6,4.3,1.1,6.3l0,0
			C64.3,53.8,61.5,53,59.4,51.6z"/>
		<path d="M61.6,47.4L44.3,57.8c-1.1,0.7,1.5,1.7,2.3,2.9l0.3,0.5c0.8,1.2,2.4,1.7,3.5,0.9L65,52.5c-1.3,0.9,0.2-4,0.5-3.6l-0.3-0.5
			C64.3,47.1,62.7,46.7,61.6,47.4z"/>
		<path d="M66.4,25.9L66.7,40c0,1,0.8,1.8,1.8,1.8l1.6,0c1,0,1.8-0.8,1.8-1.8l-0.2-14.1c0-1-0.8-1.8-1.8-1.8l-1.6,0
			C67.2,24.1,66.4,24.9,66.4,25.9z"/>
		<path d="M77.3,47.7l-10.4-6.5c-0.7-0.5-0.9-1.4-0.5-2.2l0.5-0.8c0.5-0.7,1.4-0.9,2.2-0.5l10.4,6.5c0.7,0.5,0.9,1.4,0.5,2.2
			l-0.5,0.8C79,47.9,78,48.1,77.3,47.7z"/>
		<g>
			<path d="M78,46.3L33.1,20c-0.6-0.4-0.8-1.2-0.4-1.8v0c0.4-0.5,1.1-0.7,1.6-0.3l45.1,26.4L78,46.3z"/>
		</g>
		<path d="M79.1,48.9l-1.2-0.1c-1.1-0.1-1.9-1.1-1.8-2.2l0.1-1.2c0.1-1.1,1.1-1.9,2.2-1.8l1.2,0.1c1.1,0.1,1.9,1.1,1.8,2.2l-0.1,1.2
			C81.2,48.2,80.2,49,79.1,48.9z"/>
		<path d="M71.6,25.4c0,0-1.1-4.7-4.9-4.4c-3.8,0.3-16.4,8.4-18.3,9.7c-2,1.2-5.2,6.6-5.2,6.6s6.1,5.5,6.1,5.4S74.1,29.4,71.6,25.4z
			"/>
	</g>
	<text transform="matrix(1 0 0 1 36.1753 93)" font-family="'MyriadPro-Regular'" font-size="14">Race</text>
</g>
</svg>
