<?xml version="1.0" encoding="utf-8"?>
<!-- Generator: Adobe Illustrator 18.1.0, SVG Export Plug-In . SVG Version: 6.00 Build 0)  -->
<svg version="1.1" id="Icons" xmlns="http://www.w3.org/2000/svg" xmlns:xlink="http://www.w3.org/1999/xlink" x="0px" y="0px"
	 viewBox="0 0 100 100" enable-background="new 0 0 100 100" xml:space="preserve">
<g id="Boundary">
	<path d="M98.9,1v97.7H1.2V1H98.9 M99.9,0H0.2v99.7h99.7V0L99.9,0z"/>
</g>
<g id="Disciplines">
	<g id="RR">
		<g id="Ski_3_">
			<path d="M25.4,56.4L25.4,56.4c0.3-0.6,0.9-1,1.4-0.8l34.3,10.6l-1,2.1L25.8,57.7C25.3,57.6,25.1,57,25.4,56.4z"/>
			<path d="M58.1,67.6l1.4-1.9c1.4,1,3.7,0.3,4.9-1.5l1.6,1.1C64,68.1,60.4,69.2,58.1,67.6z"/>
		</g>
		<circle cx="56.6" cy="28.7" r="5.5"/>
		<path d="M52.8,33.9L52.8,33.9c-1.8-1.4-4.4-1.1-5.8,0.7l-6.2,7.9c-0.3,0.4-0.7,0.9-0.9,1.3c-0.8,1.7,0.1,3.5,1.6,4.6l0,0
			c1.8,1.4,4.4,1.1,5.8-0.7l6.2-7.9C54.9,38,54.6,35.4,52.8,33.9z"/>
		<path d="M57.7,45.6L57.7,45.6c-1.1,0.6-2.5,0.3-3.1-0.8l-4.3-7.4c-0.7-1.1-0.6-2.4,0.8-3.1h0c0-1.3,1-1.2,3.1,0.8l4.3,7.4
			C59.1,43.5,58.8,44.9,57.7,45.6z"/>
		<path d="M64.8,44.2L64.8,44.2c-0.1,1.2-1.1,2.2-2.3,2.1l-6.2-0.5c-1.3,0-2-1.4-2-2.6l-0.2,0.3c0-1.4,1.1-2.3,2.6-2.1l6.2,0.5
			C64,41.9,64.9,43,64.8,44.2z"/>
		<path d="M48.4,54.3l-8-6.9c-1.1-0.9-1.2-2.6-0.3-3.7l0,0c0.9-1.1,2.6-1.2,3.7-0.3l8,6.9c1.1,0.9,1.2,2.6,0.3,3.7l0,0
			C51.1,55.1,49.5,55.2,48.4,54.3z"/>
		<path d="M43.1,62.4L43.1,62.4c-1.3-0.9-1.6-2.7-0.8-4l4.8-7.1c0.9-1.3,2.7-1.6,4-0.8h0c1.3,0.9,1.6,2.7,0.8,4l-4.8,7.1
			C46.2,62.9,44.4,63.3,43.1,62.4z"/>
		<polygon points="43.5,56.6 41,60.4 46.2,62.9 		"/>
		<g display="none">
			<rect x="62.2" y="41" display="inline" width="1" height="22"/>
		</g>
	</g>
	<text transform="matrix(1 0 0 1 19.6699 92.7083)" font-family="'MyriadPro-Regular'" font-size="14">3-6 y/o Ski</text>
</g>
</svg>
