<?xml version="1.0" encoding="utf-8"?>
<!-- Generator: Adobe Illustrator 18.1.0, SVG Export Plug-In . SVG Version: 6.00 Build 0)  -->
<svg version="1.1" id="Icons" xmlns="http://www.w3.org/2000/svg" xmlns:xlink="http://www.w3.org/1999/xlink" x="0px" y="0px"
	 viewBox="0 0 100 100" enable-background="new 0 0 100 100" xml:space="preserve">
<g id="Boundary">
	<path d="M98.9,1v97.7H1.2V1H98.9 M99.9,0H0.2v99.7h99.7V0L99.9,0z"/>
</g>
<g id="Disciplines">
	<g id="Exp_SB">
		<circle cx="58.8" cy="27.1" r="5.7"/>
		<path d="M52,37.3H33.5c-1.3,0-2.4-1.1-2.4-2.4v0c0-1.3,1.1-2.4,2.4-2.4H52c1.3,0,2.4,1.1,2.4,2.4v0C54.4,36.2,53.4,37.3,52,37.3z"
			/>
		<path d="M71.1,42.4l-17.7-5c-1.3-0.4-2-1.7-1.6-2.9v0c0.4-1.3,1.7-2,2.9-1.6l17.7,5c1.3,0.4,2,1.7,1.6,2.9v0
			C73.7,42,72.3,42.7,71.1,42.4z"/>
		<path d="M52,50.1L52,50.1c-1.5-0.9-3.5-0.5-4.4,1l-6.4,10.2c-0.9,1.5-0.5,3.5,1,4.4h0c1.5,0.9,3.5,0.5,4.4-1L53,54.5
			C53.9,53,53.5,51.1,52,50.1z"/>
		<path d="M52.8,49l1.9-2.3l6.5,2.9c0,0,2.5,1.5,0.8,4c-1.7,2.5-5.4,8.5-5.4,8.5l-6.1-0.8l4.1-6.9C54.5,54.4,56.1,50.4,52.8,49z"/>
		<path d="M60.7,38.2L45.8,54.1l-6.8-3c0,0-1.7-1.7,0-3.8c1.7-2.1,10.3-11.9,10.3-11.9L60.7,38.2z"/>
		<path d="M29.4,62.7l37.1-2.9c0,0,2.6,0.9,2.4,2S30.6,72,28.6,71.4C26.6,70.7,23.3,65.4,29.4,62.7z"/>
		<polygon points="52,50.1 49.1,48.5 47.8,51.1 		"/>
		<path d="M54.5,32.7c0,0-1.2-0.5-3.2-0.3c-2,0.2,1.1,1.2,1.1,1.2L54.5,32.7z"/>
	</g>
	<text transform="matrix(1 0 0 1 17.3249 92.7083)" font-family="'MyriadPro-Regular'" font-size="14">6-14 y/o SB</text>
</g>
</svg>
