<?xml version="1.0" encoding="utf-8"?>
<!-- Generator: Adobe Illustrator 18.1.0, SVG Export Plug-In . SVG Version: 6.00 Build 0)  -->
<svg version="1.1" id="Icons" xmlns="http://www.w3.org/2000/svg" xmlns:xlink="http://www.w3.org/1999/xlink" x="0px" y="0px"
	 viewBox="0 0 100 100" enable-background="new 0 0 100 100" xml:space="preserve">
<g id="Boundary">
	<path d="M98.9,1v97.7H1.2V1H98.9 M99.9,0H0.2v99.7h99.7V0L99.9,0z"/>
</g>
<g id="Disciplines">
	<g id="SBer_1_">
		<path d="M47.3,24.9c0,0,11.8-3.8,18.3,7"/>
		<g id="SBer">
			<circle cx="58.8" cy="17.9" r="5.9"/>
			<path d="M43.9,51.3l9.5-6.7c1.7-1.2,2.2-3.7,0.9-5.4L54,38.8c-1.2-1.7-3.7-2.2-5.4-0.9l-9.5,6.7c-1.7,1.2-2.2,3.7-0.9,5.4
				l0.3,0.4C39.7,52.1,42.1,52.6,43.9,51.3z"/>
			<path d="M52.7,57.7l8.9-6.3c1.7-1.2,2.2-3.7,0.9-5.4l-0.3-0.4c-1.2-1.7-3.7-2.2-5.4-0.9l-8.9,6.3c-1.7,1.2-2.2,3.7-0.9,5.4
				l0.3,0.4C48.5,58.5,50.9,58.9,52.7,57.7z"/>
			<path d="M40.2,62.7h-0.4c-2.1,0-3.7-1.7-3.7-3.7v-8.1c0-2.1,1.7-3.7,3.7-3.7h0.4c2.1,0,3.7,1.7,3.7,3.7v8.1
				C43.9,61,42.2,62.7,40.2,62.7z"/>
			<path d="M49.7,67.9h-0.4c-2.1,0-3.7-1.7-3.7-3.7V56c0-2.1,1.7-3.7,3.7-3.7h0.4c2.1,0,3.7,1.7,3.7,3.7v8.1
				C53.4,66.2,51.7,67.9,49.7,67.9z"/>
			<path d="M26.9,34.5l22.3-4.7c1.3-0.3,2.1-1.6,1.8-3v0c-0.3-1.4-1.6-2.3-2.6-2.2l-22.3,4.7c-1.6,0.4-2.4,1.8-2.1,3.2l0,0
				C24.2,33.9,25.5,34.8,26.9,34.5z"/>
			<path d="M77.8,50.6L64.6,30.4c-0.3-0.4-1.9-0.7-3.1,0.1l0,0c-1.2,0.8-1.5,2.4-0.8,3.6l13.2,20.2c0.8,1.2,2.4,1.5,3.6,0.8v0
				C78.7,54.2,79.1,52.6,77.8,50.6z"/>
			<polygon points="48.4,41 48.9,24.7 64.1,30.1 63,49.4 53.4,48.9 50.9,46.8 			"/>
			<path d="M36,50.7c0,0-0.7-4.5,3.4-6.6c4.1-2,8.1-5.4,8.1-5.4"/>
			<path d="M45.5,55.9c0,0-0.2-3.8,3.8-5.9C53.4,48,45.5,55.9,45.5,55.9z"/>
			<g id="Board">
				<path d="M55.1,76.9c0,0,0.9-0.7,2.2-1.1c2.9-0.7,8-1.6,10.6-0.3c1.3,0.7,2,2.2,1.4,4.4L55.1,76.9z"/>
				<path d="M57.7,76.7"/>
				<path d="M22.2,52.2c0,0,25.6,26.3,39.7,24.6l-0.5,1.1l-0.2,0.3c0,0-6.6-1.4-7.8-1.7c-1.3-0.4-5-1.5-7-2.8S28.1,61.6,21.5,52.6
					L22.2,52.2z"/>
				<path d="M21.5,52.6c0,0-1.9-6.2,8.8-2.2l-0.1,0c0,0-7.9-2.1-7.8,1.9"/>
			</g>
		</g>
	</g>
	<text transform="matrix(1 0 0 1 16.3513 93)" font-family="'MyriadPro-Regular'" font-size="14">Snowboard</text>
</g>
</svg>
