<?xml version="1.0" encoding="utf-8"?>
<!-- Generator: Adobe Illustrator 18.1.0, SVG Export Plug-In . SVG Version: 6.00 Build 0)  -->
<svg version="1.1" id="Icons" xmlns="http://www.w3.org/2000/svg" xmlns:xlink="http://www.w3.org/1999/xlink" x="0px" y="0px"
	 viewBox="0 0 100 100" enable-background="new 0 0 100 100" xml:space="preserve">
<g id="Boundary">
	<path d="M98.9,1v97.7H1.2V1H98.9 M99.9,0H0.2v99.7h99.7V0L99.9,0z"/>
</g>
<g id="Disciplines">
	<g>
		<g>
			<path d="M81.1,25.2c-2.7-0.1-21.3,0.1-21.3,0.1c0.1,0.6,0.2,1.2,0.2,1.8c0,4.2-3.6,7.6-8,7.6c-3.9,0-7.5-2.5-8.3-5.9
				c-3.2,0.4-4.4,0.6-4.9,1.7c-0.4,1,5.5,25.2,5.5,25.2l12.9-2.5L60.4,66l11.2,0.3c0,0-5.8-20-6.5-21.9c-0.7-1.9-2.1-2.4-3.5-2.3
				s-6.4,1.9-6.4,1.9c-1.6-6.5,6.2-12,6.2-12s15.2-0.2,19-0.2C84.1,31.8,83.8,25.3,81.1,25.2z"/>
		</g>
		<path d="M41.4,68.7L41.4,68.7c-2,0-3.6-1.6-3.6-3.6l0-32.2c0-2,1.6-3.6,3.6-3.6h0c2,0,3.6,1.6,3.6,3.6l0,32.2
			C45.1,67.1,43.4,68.7,41.4,68.7z"/>
		<path d="M28.3,66.1L27,66.5c-2.2-0.9-2.4-3-1.3-5.3L33,45.7c1.1-2.3,3.7-3.4,5.9-2.5l0,0c2.2,0.9,3.1,3.5,2,5.8l-7.3,15.5
			C32.5,66.9,30.5,67,28.3,66.1z"/>
		<path fill="none" stroke="#000000" stroke-width="2" stroke-linecap="round" stroke-miterlimit="10" d="M14.1,62.3
			c3.2,3.9,8.6,3.7,8.6,3.7h54.8c0,0,5.6,0.5,8.4-3.8"/>
		<ellipse cx="51.8" cy="26.3" rx="6" ry="5.7"/>
		<polygon points="28.6,60.8 26.2,60.2 23.3,66.1 32.1,66.4 		"/>
	</g>
	<text transform="matrix(1 0 0 1 15.2032 92.7083)" font-family="'MyriadPro-Regular'" font-size="14">SB Freestyle</text>
</g>
</svg>
