<?xml version="1.0" encoding="utf-8"?>
<!-- Generator: Adobe Illustrator 18.1.0, SVG Export Plug-In . SVG Version: 6.00 Build 0)  -->
<svg version="1.1" id="Icons" xmlns="http://www.w3.org/2000/svg" xmlns:xlink="http://www.w3.org/1999/xlink" x="0px" y="0px"
	 viewBox="0 0 100 100" enable-background="new 0 0 100 100" xml:space="preserve">
<g id="Boundary">
	<path d="M98.9,1v97.7H1.2V1H98.9 M99.9,0H0.2v99.7h99.7V0L99.9,0z"/>
</g>
<g id="Disciplines">
	<g id="Nord">
		<g id="Ski">
			<rect x="11.8" y="71" width="75.7" height="2.1"/>
			<path d="M85.2,72.9l0.5-2c1.9,0.5,3.8-0.7,4.2-2.6l2,0.5C91.2,71.8,88.2,73.7,85.2,72.9z"/>
		</g>
		<circle cx="70.6" cy="20.7" r="5.8"/>
		<path d="M56.6,46.3c-1.5,2.2-4.6,2.6-6.9,1l0,0c-2.3-1.6-3-4.7-1.5-6.8L58.1,26c1.5-2.2,4.6-2.6,6.9-1l0,0c2.3,1.6,3,4.7,1.5,6.8
			L56.6,46.3z"/>
		<path stroke="#000000" d="M68.6,56.9c-1.1,1.5-4.4-0.2-5.7-1.1l-13-8.5c-1.3-0.9,0-2.8,1.2-4.3c1.1-1.5,3.1-2,4.2-1.3L66.7,50
			c0.9,0.8,1.6,1.5,1.8,2.4C69.3,57,65.3,61.4,68.6,56.9z"/>
		<path d="M64.3,57.2l-15.8-9.6c-1.9-1.1-2.5-3.6-1.3-5.5l0,0c0.4-0.7,1.4-2.4,1.7-1.5s2.6-0.5,3.7,0.2l15.8,9.6
			c1.9,1.1,2.5,3.6,1.3,5.5l0,0C68.6,57.7,66.2,58.3,64.3,57.2z"/>
		<path d="M60.1,72.7l-0.7-0.3c-1.2-0.5-1.8-1.9-1.3-3.2l7-16.8c0.5-1.2,1.9-1.8,3.2-1.3l0.7,0.3c1.2,0.5,1.8,1.9,1.3,3.2l-7,16.8
			C62.7,72.7,61.3,73.2,60.1,72.7z"/>
		<path d="M30,71.4L30,71.4c-1.1-1.1-1-2.9,0.1-4l12.3-11.5c1.1-1.1,2.9-1,4,0.1l0,0c1.1,1.1,1,2.9-0.1,4L34,71.5
			C32.9,72.5,31.1,72.5,30,71.4z"/>
		<path d="M45.9,46l-5.4,12.1l6.4,1l4.5-8.5C51.4,50.6,45.3,47.2,45.9,46z"/>
		<path d="M58.4,43.5l8.5-9l4.1,6.6c0,0,2.4,1,3.7-0.7c1.4-1.7,8.5-9.4,8.5-9.4s-1.7-4.6-3.4-2.9s-7.1,6.6-7.1,6.6
			s-1.8-11.7-20.6-14.1c-0.4-0.1-1.7,0.4-1.7,0.4S45.3,33.8,44.7,35c-0.5,1.2,1.9,2.9,2.7,1.5c0.9-1.4,5.8-9.9,5.8-9.9l3.1,0.9
			l1.9-0.3L58.4,43.5z"/>
		<g>
			<polygon points="9.1,54.5 8,53.2 43.3,37.3 45.6,38.3 			"/>
		</g>
		<g>
			<polygon points="70.3,73 68.5,72.2 81.1,30.7 82.9,31.5 			"/>
		</g>
	</g>
	<text transform="matrix(1 0 0 1 24.0375 92.875)" font-family="'MyriadPro-Regular'" font-size="14">Skate Ski</text>
</g>
</svg>
