<?xml version="1.0" encoding="utf-8"?>
<!-- Generator: Adobe Illustrator 18.1.0, SVG Export Plug-In . SVG Version: 6.00 Build 0)  -->
<svg version="1.1" id="Lifts" xmlns="http://www.w3.org/2000/svg" xmlns:xlink="http://www.w3.org/1999/xlink" x="0px" y="0px"
	 viewBox="0 0 100 100" enable-background="new 0 0 100 100" xml:space="preserve">
<g id="Boundary">
	<path d="M98.8,0.9v97.8H1.2V0.9H98.8 M99.8-0.1H0.2v99.8h99.7L99.8-0.1L99.8-0.1z"/>
</g>
<g id="Gondola">
	<g>
		<polygon points="20.7,22.7 79.4,6.9 79.4,9.7 20.6,25.5 		"/>
	</g>
	<polygon points="52.4,18.8 57.4,17.3 57.4,26.7 51,33.1 44.1,33.1 52.4,24.9 	"/>
	<path d="M48.4,13.5l13-3.6c0,0-2.9-4.6-8.2-2.8S48.4,13.5,48.4,13.5z"/>
	<g>
		<path d="M72,58.3c-0.1-13.5-3.6-18.7-3.6-18.7s-2-3.8-4-3.8c0,0-4.7-1.2-16.5-1.2S30,35.8,30,35.8c-2,0-3.9,3.8-3.9,3.8
			s-3.6,4.7-3.6,19C22.6,72.9,26,76.9,26,76.9s1.9,3.8,4,3.8c0,0,5.4,0.9,17.5,0.9s16.9-1,16.9-1c2,0,4.2-3.7,4.2-3.7
			S72.1,71.7,72,58.3z M35.9,59.6h-9.1c0,0-0.2-5.9,0.8-10.5c1-4.7,2.1-8.3,2.8-9c0.6-0.7,5.6-1,5.6-1L35.9,59.6L35.9,59.6z
			 M54.3,59.7h-14v-21c0,0,3.5-0.4,7.2-0.4c3.6,0,6.8,0.4,6.8,0.4V59.7z M67.8,59.6h-9.1V39.1c0,0,4.9,0.3,5.6,1
			c0.6,0.7,1.8,4.4,2.8,9C67.9,53.8,67.8,59.6,67.8,59.6z"/>
	</g>
</g>
<text transform="matrix(1 0 0 1 2.0086 93.3333)" font-family="'MyriadPro-Regular'" font-size="14">Bridger Gondola</text>
</svg>
