<?xml version="1.0" encoding="utf-8"?>
<!-- Generator: Adobe Illustrator 18.1.0, SVG Export Plug-In . SVG Version: 6.00 Build 0)  -->
<svg version="1.1" id="Lifts" xmlns="http://www.w3.org/2000/svg" xmlns:xlink="http://www.w3.org/1999/xlink" x="0px" y="0px"
	 viewBox="0 0 100 100" enable-background="new 0 0 100 100" xml:space="preserve">
<g id="Boundary">
	<path d="M98.8,0.9v97.8H1.2V0.9H98.8 M99.8-0.1H0.2v99.8h99.7L99.8-0.1L99.8-0.1z"/>
</g>
<g id="Triple">
	<path stroke="#000000" d="M50.3,16.8c0,1.3-1.1,2.4-2.4,2.4l0,0c-1.3,0-2.4-1.1-2.4-2.4l0,0c0-1.3,1.1-2.4,2.4-2.4l0,0
		C49.2,14.4,50.3,15.5,50.3,16.8L50.3,16.8z"/>
	<g>
		<path d="M67.6,78.4H32.8c-2.3,0-4.7-1.2-6.5-3.3c-1.9-2.2-3-4.9-3-7.8v-13c0-2.8,1.1-5.6,3-7.8c1.9-2.1,4.2-3.3,6.5-3.3h34.9
			c4.9,0,9.3,5.3,9.3,11v13C76.9,73.1,72.5,78.4,67.6,78.4z M32.8,45.7c-3.9,0-7.1,4.7-7.1,8.6v13c0,3.9,3.2,8.6,7.1,8.6h34.9
			c3.2,0,6.9-3.8,6.9-8.6v-13c0-4.8-3.7-8.6-6.9-8.6C67.6,45.7,32.8,45.7,32.8,45.7z"/>
	</g>
	<g>
		<path d="M63.7,18.6c-2-1.9-4.7-3.1-7.8-3.1h-7.1c-0.3,0-0.5,0-0.8,0v2.1c0.3,0,0.5,0,0.8,0h7.1c2.5,0,4.7,1,6.3,2.6
			s2.6,3.7,2.6,6.1v7l0,0c0,2.4-1,4.6-2.6,6.1C60.6,41,58.5,42,56,42h-2.3v2H56c3,0,5.8-1.2,7.8-3.1c2-1.9,3.2-4.6,3.2-7.6l0,0v-7
			C67,23.3,65.7,20.6,63.7,18.6z"/>
	</g>
	<path d="M59.8,41.9H44c0,0-0.5-0.1-0.5,0.6c0,0.7,0,1.8,0,1.8L54.2,44L59.8,41.9z"/>
	<path d="M55.5,43.2"/>
	<rect x="22" y="59.6" width="56" height="5.8"/>
	<path stroke="#000000" d="M78.1,73.8c0,0.5-0.3,0.9-0.7,0.9H22.8c-0.4,0-0.7-0.4-0.7-0.9V70c0-0.5,0.3-0.9,0.7-0.9h54.7
		c0.4,0,0.7,0.4,0.7,0.9V73.8z"/>
	<path stroke="#000000" d="M78.8,74.1c0,0.4-0.3,0.8-0.6,0.9H21.8c-0.3-0.1-0.6-0.5-0.6-0.9l0,0c0-0.4,0.3-0.8,0.6-0.8h56.6
		C78.6,73.3,78.8,73.6,78.8,74.1L78.8,74.1z"/>
</g>
<text transform="matrix(1 0 0 1 26.6413 93.3337)" font-family="'MyriadPro-Regular'" font-size="14">Marmot</text>
</svg>
