<?xml version="1.0" encoding="utf-8"?>
<!-- Generator: Adobe Illustrator 18.1.0, SVG Export Plug-In . SVG Version: 6.00 Build 0)  -->
<svg version="1.1" id="Icons" xmlns="http://www.w3.org/2000/svg" xmlns:xlink="http://www.w3.org/1999/xlink" x="0px" y="0px"
	 viewBox="0 0 100 100" enable-background="new 0 0 100 100" xml:space="preserve">
<g id="Boundary">
	<path d="M98.9,1v97.7H1.2V1H98.9 M99.9,0H0.2v99.7h99.7V0L99.9,0z"/>
</g>
<g id="Terrain">
	<g id="Groomed">
		<path fill="none" stroke="#000000" stroke-miterlimit="10" d="M33.5,50.3c9.3-5.8,22.1,11.1,22.1,11.1l29.8-40.8
			c0,0-1.6-2.5-4-1.2C78,21.4,29.4,52.9,33.5,50.3z"/>
		<path fill="none" stroke="#000000" stroke-miterlimit="10" d="M57.3,63.2c0,0,13.8-3.6,20,11.1c0.8-3.6,1.2-5.4,1.9-7.9
			c1.3-5,2.4-12.7,10.6-43.3c-1.5-2.7-3.5-1.6-3.5-1.6L57.3,63.2z"/>
		<path fill="none" stroke="#000000" stroke-miterlimit="10" d="M31.5,47.9c0,0-5.8-10-14.3-6.8c-5.3,2.1,56.2-22.8,58.3-23.9
			c2.1-1.2,4.6,1.7,4.6,1.7L31.5,47.9z"/>
		<path fill="none" stroke="#000000" stroke-miterlimit="10" d="M15.1,39.9l59.1-23.6c0,0-1.4-1.8-4.4-0.8S2.2,36.9,5.7,35.5
			C11.1,34.2,15.1,39.9,15.1,39.9z"/>
	</g>
	<text transform="matrix(1 0 0 1 22.2801 93.2293)" font-family="'MyriadPro-Regular'" font-size="14">Groomed</text>
</g>
</svg>
