<?xml version="1.0" encoding="utf-8"?>
<!-- Generator: Adobe Illustrator 18.1.0, SVG Export Plug-In . SVG Version: 6.00 Build 0)  -->
<svg version="1.1" id="Icons" xmlns="http://www.w3.org/2000/svg" xmlns:xlink="http://www.w3.org/1999/xlink" x="0px" y="0px"
	 viewBox="0 0 100 100" enable-background="new 0 0 100 100" xml:space="preserve">
<g id="Boundary">
	<path d="M98.9,1v97.7H1.2V1H98.9 M99.9,0H0.2v99.7h99.7V0L99.9,0z"/>
</g>
<g id="Terrain">
	<g id="Trees">
		<path d="M36.2,25.8c0,0,2.6,3.7,3.6,4.1s-1.4-0.1-1.4-0.1s0.8,0.6,1.2,0.9c0.4,0.2-1-0.1-1-0.1s2,1.9,2.4,1.9S39.1,33,39.1,33
			s1.3,2,2,2c0.7,0-1.8,0-1.8,0s2.6,2,3.4,2c0.8,0-2.4,0-2.4,0s2.1,1.2,2.6,1.4s-1.8-0.1-1.8-0.1s3.4,3.1,4.1,3.1
			c0.7,0-3.8-0.1-3.8-0.1s2.2,2.2,3.5,2.4c1.3,0.2-3.8,0.4-4.8-0.5c-1-0.9-0.2,1.2,0.4,1.7s-2.8-0.7-2.8-0.7L37.6,48h-2.4l-0.2-3.7
			c0,0-2.2,1-2.8,0.8c-0.5-0.2,0.8-1.5,0.6-1.9c-0.2-0.4-4.6,1.6-5.3,0.6s0.2,1.4,3.4-2.7l-3,0.1l3.5-3.1l-0.6,0l-1-0.1l2.8-1.8
			l-2.8,0.6c0,0,1.8-0.8,3-1.8h-1.7c0,0,2.6-2.1,2.1-2.4l-2.2,0.1c0,0,2-0.9,3.1-2c0.2-0.2-1.1-0.2-1.1-0.2l1.4-1.1l-2,0.2
			C32.6,29.6,36.1,27.2,36.2,25.8z"/>
		<path d="M47.2,16.8c0,0,2.6,3.7,3.6,4.1s-1.4-0.1-1.4-0.1s0.8,0.6,1.2,0.9c0.4,0.2-1-0.1-1-0.1s2,1.9,2.4,1.9S50.1,24,50.1,24
			s1.3,2,2,2c0.7,0-1.8,0-1.8,0s2.6,2,3.4,2c0.8,0-2.4,0-2.4,0s2.1,1.2,2.6,1.4s-1.8-0.1-1.8-0.1s3.4,3.1,4.1,3.1
			c0.7,0-3.8-0.1-3.8-0.1s2.2,2.2,3.5,2.4c1.3,0.2-3.8,0.4-4.8-0.5c-1-0.9-0.2,1.2,0.4,1.7s-2.8-0.7-2.8-0.7L48.6,39h-2.4l-0.2-3.7
			c0,0-2.2,1-2.8,0.8s0.8-1.5,0.6-1.9c-0.2-0.4-4.6,1.6-5.3,0.6s0.2,1.4,3.4-2.7l-3,0.1l3.5-3.1l-0.6,0l-1-0.1l2.8-1.8l-2.8,0.6
			c0,0,1.8-0.8,3-1.8h-1.7c0,0,2.6-2.1,2.1-2.4l-2.2,0.1c0,0,2-0.9,3.1-2c0.2-0.2-1.1-0.2-1.1-0.2l1.4-1.1l-2,0.2
			C43.6,20.6,47.1,18.2,47.2,16.8z"/>
		<path d="M74.2,16.8c0,0,2.6,3.7,3.6,4.1s-1.4-0.1-1.4-0.1s0.8,0.6,1.2,0.9c0.4,0.2-1-0.1-1-0.1s2,1.9,2.4,1.9S77.1,24,77.1,24
			s1.3,2,2,2c0.7,0-1.8,0-1.8,0s2.6,2,3.4,2c0.8,0-2.4,0-2.4,0s2.1,1.2,2.6,1.4s-1.8-0.1-1.8-0.1s3.4,3.1,4.1,3.1
			c0.7,0-3.8-0.1-3.8-0.1s2.2,2.2,3.5,2.4c1.3,0.2-3.8,0.4-4.8-0.5c-1-0.9-0.2,1.2,0.4,1.7s-2.8-0.7-2.8-0.7L75.6,39h-2.4l-0.2-3.7
			c0,0-2.2,1-2.8,0.8s0.8-1.5,0.6-1.9c-0.2-0.4-4.6,1.6-5.3,0.6s0.2,1.4,3.4-2.7l-3,0.1l3.5-3.1l-0.6,0l-1-0.1l2.8-1.8l-2.8,0.6
			c0,0,1.8-0.8,3-1.8h-1.7c0,0,2.6-2.1,2.1-2.4l-2.2,0.1c0,0,2-0.9,3.1-2c0.2-0.2-1.1-0.2-1.1-0.2l1.4-1.1l-2,0.2
			C70.6,20.6,74.1,18.2,74.2,16.8z"/>
		<path d="M49.7,46.2c0,0-3.2,5.4-4.4,5.8c-1.2,0.5,1.7,0.6,1.7,0.6s-0.9,0.7-1.4,1c-0.5,0.3,1.2-0.1,1.2-0.1s-2.3,2.2-2.8,2.2
			s2.2,0.8,2.2,0.8S44.7,59,43.9,59c-0.8,0,2.1,0,2.1,0s-3,2-4,2c-1,0,2.8,0,2.8,0s-2.4,1.4-3,1.7c-0.6,0.3,2-0.1,2-0.1
			s-4,3.6-4.8,3.6s4.4-0.1,4.4-0.1S41,68.8,39.4,69c-1.6,0.2,4.5,0.5,5.6-0.6c1.2-1.1,0.3,1.4-0.5,1.9c-0.8,0.6,3.2-0.8,3.2-0.8
			l0.1,4.5h2.8l0.2-4.3c0,0,3.4,1.6,4,1.4c0.6-0.2-1.6-2.2-1.4-2.7s4.9,2.9,4.9,2.9s-2.2-2.8-2.7-5.4l3.4,0.9l-4-4.4l0.7,0l1.2-0.1
			l-3.2-2.1l3.2,0.8c0,0-2.1-1-3.5-2h1.9c0,0-3-2.5-2.4-2.9l2.5,0.1c0,0-2.3-1.1-3.6-2.3c-0.2-0.2,1.3-0.2,1.3-0.2l-1.6-1.3l2.3,0.2
			C53.8,52.5,49.7,47.9,49.7,46.2z"/>
		<path d="M26.1,39.5c0,0,3.4,4.9,4.7,5.5S29,44.8,29,44.8s1,0.8,1.6,1.1c0.6,0.3-1.3-0.1-1.3-0.1s2.7,2.5,3.2,2.5
			c0.6,0-2.5,0.9-2.5,0.9s1.8,2.8,2.7,2.8c0.9,0-2.4,0-2.4,0s3.4,2,4.5,2c1.1,0-3.2,0-3.2,0s2.8,1.8,3.4,2.1
			c0.7,0.3-2.3-0.1-2.3-0.1s4.5,4.2,5.4,4.2s-5-0.1-5-0.1s2.9,3,4.6,3.2c1.8,0.2-5.1,0.5-6.4-0.7s-0.3,1.5,0.6,2.2
			c0.9,0.7-3.6-0.9-3.6-0.9L28,69h-3.2l-0.2-4.9c0,0-3,1.3-3.6,1c-0.7-0.2,1-2,0.8-2.5s-6.1,2.1-7.1,0.7s0.2,1.9,4.5-3.6l-4,0.1
			l4.6-4.1l-0.8,0l-1.3-0.1l3.6-2.4l-3.6,0.9c0,0,2.4-1.3,4-2.3h-2.2c0,0,3.4-2.9,2.8-3.3l-2.9,0.1c0,0,2.6-1.3,4.1-2.7
			c0.2-0.3-1.4-0.3-1.4-0.3l1.8-1.4l-2.6,0.2C21.3,44.6,26,41.4,26.1,39.5z"/>
		<path d="M39.9,10.9c0,0,2.1,3,2.9,3.4c0.8,0.3-1.1-0.1-1.1-0.1s0.6,0.5,1,0.7s-0.8-0.1-0.8-0.1s1.6,1.5,2,1.5s-1.6,0.3-1.6,0.3
			s1.1,1.4,1.6,1.4c0.5,0-1.5,0-1.5,0s2.1,2,2.8,2s-2,0-2,0s1.7,1,2.1,1.2s-1.4-0.1-1.4-0.1s2.8,2.5,3.3,2.5c0.5,0-3.1-0.1-3.1-0.1
			s1.8,1.8,2.8,2s-3.1,0.3-3.9-0.4s-0.2,0.9,0.3,1.4s-2.2-0.5-2.2-0.5L41.1,29h-2L39,26c0,0-1.8,0.8-2.2,0.6
			c-0.4-0.1,0.6-1.2,0.5-1.5c-0.1-0.3-3.7,1.3-4.3,0.4c-0.6-0.8,0.1,1.1,2.8-2.2l-2.4,0.1l2.8-2.5l-0.5,0l-0.8-0.1l2.2-1.5l-2.2,0.3
			c0,0,1.5-0.7,2.4-1.7h-1.4c0,0,2.1-1.5,1.7-1.8l-1.8,0.2c0,0,1.6-0.7,2.5-1.6c0.1-0.2-0.9-0.1-0.9-0.1l1.1-0.9L36.9,14
			C36.9,14,39.8,12,39.9,10.9z"/>
		<path d="M79.2,37.8c0,0,2.6,3.7,3.6,4.1s-1.4-0.1-1.4-0.1s0.8,0.6,1.2,0.9c0.4,0.2-1-0.1-1-0.1s2,1.9,2.4,1.9S82.1,45,82.1,45
			s1.3,2,2,2c0.7,0-1.8,0-1.8,0s2.6,2,3.4,2c0.8,0-2.4,0-2.4,0s3.1,1.2,3.6,1.4s-2.8-0.1-2.8-0.1s4.4,3.1,5.1,3.1
			c0.7,0-4.8-0.1-4.8-0.1s3.2,2.2,4.5,2.4c1.3,0.2-4.8,0.4-5.8-0.5c-1-0.9-0.2,1.2,0.4,1.7s-2.8-0.7-2.8-0.7L80.6,60h-2.4l-0.2-3.7
			c0,0-2.2,1-2.8,0.8s0.8-1.5,0.6-1.9c-0.2-0.4-4.6,1.6-5.3,0.6s0.2,1.4,3.4-2.7l-3,0.1l3.5-3.1l-0.6,0l-1-0.1l2.8-1.8l-2.8,0.6
			c0,0,1.8-0.8,3-1.8h-1.7c0,0,2.6-2.1,2.1-2.4l-2.2,0.1c0,0,2-0.9,3.1-2c0.2-0.2-1.1-0.2-1.1-0.2l1.4-1.1l-2,0.2
			C75.6,41.6,79.1,39.2,79.2,37.8z"/>
		<path d="M65.1,8c0,0,2.3,3.3,3.2,3.7s-1.2-0.1-1.2-0.1s0.7,0.6,1.1,0.8c0.4,0.2-0.9-0.1-0.9-0.1S69,14,69.4,14s-1.7,0.4-1.7,0.4
			s1.2,1.6,1.8,1.6c0.6,0-1.6,0-1.6,0s2.3,2,3.1,2s-2.2,0-2.2,0s1.9,1.1,2.3,1.3c0.4,0.2-1.6-0.1-1.6-0.1s3.1,2.8,3.7,2.8
			c0.6,0-3.4-0.1-3.4-0.1s1.9,2,3.1,2.2c1.2,0.1-3.4,0.4-4.3-0.5c-0.9-0.8-0.2,1,0.4,1.5c0.6,0.4-2.5-0.6-2.5-0.6L66.4,28h-2.2
			l-0.1-3.3c0,0-2,0.9-2.5,0.7c-0.4-0.1,0.7-1.3,0.5-1.7c-0.1-0.4-4.1,1.4-4.8,0.5c-0.7-0.9,0.1,1.3,3.1-2.4l-2.7,0.1l3.1-2.8
			l-0.5,0L59.5,19l2.5-1.6l-2.5,0.4c0,0,1.6-0.8,2.7-1.8h-1.5c0,0,2.3-1.7,1.9-2l-1.9,0.2c0,0,1.8-0.8,2.8-1.7c0.1-0.2-1-0.1-1-0.1
			l1.2-1l-1.8,0.1C61.9,11.5,65.1,9.3,65.1,8z"/>
		<path d="M68.1,43.6c0,0-3.6,6.1-5,6.6c-1.3,0.6,2,0.7,2,0.7s-1,0.8-1.6,1.1c-0.6,0.3,1.3-0.1,1.3-0.1s-2.7,2.5-3.2,2.5
			s2.5,0.9,2.5,0.9S62.4,58,61.5,58c-0.9,0,2.4,0,2.4,0s-3.4,2-4.5,2s3.2,0,3.2,0s-2.8,1.8-3.4,2.1c-0.7,0.3,2.3-0.1,2.3-0.1
			s-3.5,4.2-4.4,4.2c-0.9,0,5-0.1,5-0.1s-2.9,3-4.6,3.2s5.1,0.5,6.4-0.7c1.3-1.2,0.3,1.5-0.6,2.2c-0.9,0.7,3.6-0.9,3.6-0.9l0.1,5.1
			h3.2l0.2-4.9c0,0,3.8,1.8,4.5,1.6c0.7-0.2-1.8-2.5-1.6-3.1s5.6,3.3,5.6,3.3s-3.5-3.2-4.1-6.1l4.9,1l-5.6-5l0.8,0l1.3-0.1l-3.6-2.4
			l3.6,0.9c0,0-2.4-1.3-4-2.3h2.2c0,0-3.4-2.9-2.8-3.3l2.9,0.1c0,0-2.6-1.3-4.1-2.6c-0.2-0.3,1.4-0.3,1.4-0.3l-1.8-1.4l2.6,0.2
			C72.8,50.7,68.2,45.4,68.1,43.6z"/>
	</g>
	<text transform="matrix(1 0 0 1 34.8381 93.2293)" font-family="'MyriadPro-Regular'" font-size="14">Trees</text>
</g>
</svg>
