<?xml version="1.0" encoding="utf-8"?>
<!-- Generator: Adobe Illustrator 18.1.0, SVG Export Plug-In . SVG Version: 6.00 Build 0)  -->
<svg version="1.1" id="Icons" xmlns="http://www.w3.org/2000/svg" xmlns:xlink="http://www.w3.org/1999/xlink" x="0px" y="0px"
	 viewBox="0 0 100 100" enable-background="new 0 0 100 100" xml:space="preserve">
<g>
	<path fill="#CCCCCC" stroke="#000000" stroke-width="3" d="M9.8,13.7c26.9-15.6,53.6-15.1,80.1,0l0.2,30.4
		c-3.3,16.3-17.4,34.2-40.4,53.5C28.1,80.3,13.4,62.5,10,44.1L9.8,13.7z"/>
	<g>
		<text transform="matrix(1 0 0 1 40.2477 62.4883)" display="none" font-family="'MyriadPro-Bold'" font-size="35.1198">1</text>
		<text transform="matrix(1 0 0 1 40.2482 62.1641)" display="none" font-family="'MyriadPro-Bold'" font-size="35.1198">9</text>
		<text transform="matrix(1 0 0 1 40.2482 62.1641)" display="none" font-family="'MyriadPro-Bold'" font-size="35.1198">8</text>
		<text transform="matrix(1 0 0 1 40.2482 62.1641)" font-family="'MyriadPro-Bold'" font-size="35.1198">7</text>
		<text transform="matrix(1 0 0 1 40.2482 62.1641)" display="none" font-family="'MyriadPro-Bold'" font-size="35.1198">6</text>
		<text transform="matrix(1 0 0 1 40.2482 62.1641)" display="none" font-family="'MyriadPro-Bold'" font-size="35.1198">5</text>
		<text transform="matrix(1 0 0 1 40.2482 62.1641)" display="none" font-family="'MyriadPro-Bold'" font-size="35.1198">4</text>
		<text transform="matrix(1 0 0 1 40.2482 62.1641)" display="none" font-family="'MyriadPro-Bold'" font-size="35.1198">3</text>
		<text transform="matrix(1 0 0 1 40.2482 62.1641)" display="none" font-family="'MyriadPro-Bold'" font-size="35.1198">2</text>
		<path id="SVGID_x5F_1_x5F_" fill="none" d="M26.7,31.8c0,0,22.7-7,49.4-0.1"/>
		<text>		<textPath  xlink:href="#SVGID_x5F_1_x5F_" startOffset="3.7109%">
<tspan  font-family="'MyriadPro-Regular'" font-size="18">LEVEL</tspan>		</textPath>
</text>
	</g>
</g>
</svg>
