<?xml version="1.0" encoding="utf-8"?>
<!-- Generator: Adobe Illustrator 18.1.0, SVG Export Plug-In . SVG Version: 6.00 Build 0)  -->
<svg version="1.1" id="Icons" xmlns="http://www.w3.org/2000/svg" xmlns:xlink="http://www.w3.org/1999/xlink" x="0px" y="0px"
	 viewBox="0 0 100 100" enable-background="new 0 0 100 100" xml:space="preserve">
<g id="Boundary">
	<path d="M98.9,1v97.7H1.2V1H98.9 M99.9,0H0.2v99.7h99.7V0L99.9,0z"/>
</g>
<g id="Terrain">
	<g id="Bumps" opacity="0.96">
		<path fill="#050505" stroke="#000000" d="M38.2,52.2c0,6.4-23.1,6.4-23.1,0s5.2-11.5,11.5-11.5C33,40.7,38.2,45.8,38.2,52.2z"/>
		<path fill="#050505" stroke="#000000" d="M63.7,52.3c0,6.3-22.6,6.3-22.6,0s5.1-11.4,11.3-11.4S63.7,45.9,63.7,52.3z"/>
		<path fill="#050505" stroke="#000000" d="M83.6,65.1c0,6.6-23.9,6.6-23.9,0c0-6.6,5.3-11.9,11.9-11.9
			C78.3,53.1,83.6,58.5,83.6,65.1z"/>
		<path fill="#050505" stroke="#000000" d="M53.9,70.1c0,7.6-26.1,7.6-26.1,0c0-7.6,5.8-13.7,13.1-13.7
			C48.1,56.3,53.9,62.5,53.9,70.1z"/>
		<path fill="#050505" stroke="#000000" d="M84.9,48c0,5.5-19.9,5.5-19.9,0c0-5.5,4.5-9.9,9.9-9.9S84.9,42.5,84.9,48z"/>
		<path fill="#050505" stroke="#000000" d="M83,33.7c0,3.6-13.1,3.6-13.1,0c0-3.6,2.9-6.5,6.5-6.5C80.1,27.2,83,30.1,83,33.7z"/>
		<path fill="#050505" stroke="#000000" d="M55.8,26.9c0,3-10.8,3-10.8,0c0-3,2.4-5.4,5.4-5.4C53.4,21.5,55.8,23.9,55.8,26.9z"/>
		<path fill="#050505" stroke="#000000" d="M68.1,36.4c0,4.5-16.4,4.5-16.4,0c0-4.5,3.7-8.2,8.2-8.2C64.4,28.2,68.1,31.9,68.1,36.4z
			"/>
		<path fill="#050505" stroke="#000000" d="M49.1,38.3c0,4.9-17.6,4.9-17.6,0c0-4.9,3.9-8.8,8.8-8.8C45.1,29.5,49.1,33.5,49.1,38.3z
			"/>
		<path fill="#050505" stroke="#000000" d="M70.6,25.1c0,3.1-10.4,3.1-10.4,0c0-3.1,2.3-5.6,5.2-5.6C68.3,19.5,70.6,22,70.6,25.1z"
			/>
		<path fill="#050505" stroke="#000000" d="M82.6,23.2c0,2.8-10,2.8-10,0c0-2.8,2.2-5,5-5C80.4,18.2,82.6,20.5,82.6,23.2z"/>
		<path fill="#050505" stroke="#000000" d="M81.2,16.3c0,1.7-6.2,1.7-6.2,0c0-1.7,1.4-3.1,3.1-3.1C79.8,13.2,81.2,14.6,81.2,16.3z"
			/>
		<path fill="#050505" stroke="#000000" d="M61.6,19.7c0,2.4-8.6,2.4-8.6,0c0-2.4,1.9-4.3,4.3-4.3C59.6,15.4,61.6,17.3,61.6,19.7z"
			/>
		<path fill="#050505" stroke="#000000" d="M73.2,17.6c0,2-6.9,2-6.9,0c0-2,1.5-3.7,3.4-3.7C71.7,13.9,73.2,15.6,73.2,17.6z"/>
		<path fill="#050505" stroke="#000000" d="M66.2,14.9c0,1.7-6.1,1.7-6.1,0c0-1.7,1.4-3.1,3.1-3.1C64.8,11.8,66.2,13.2,66.2,14.9z"
			/>
		<path fill="#050505" stroke="#000000" d="M75,12.4c0,1.6-5.3,1.6-5.3,0c0-1.6,1.2-2.8,2.6-2.8C73.8,9.5,75,10.8,75,12.4z"/>
	</g>
	<text transform="matrix(1 0 0 1 29.7563 93.2293)" font-family="'MyriadPro-Regular'" font-size="14">Bumps</text>
</g>
</svg>
