<?xml version="1.0" encoding="utf-8"?>
<!-- Generator: Adobe Illustrator 18.1.0, SVG Export Plug-In . SVG Version: 6.00 Build 0)  -->
<svg version="1.1" id="Icons" xmlns="http://www.w3.org/2000/svg" xmlns:xlink="http://www.w3.org/1999/xlink" x="0px" y="0px"
	 viewBox="0 0 100 100" enable-background="new 0 0 100 100" xml:space="preserve">
<g id="Boundary">
	<path d="M98.9,1v97.7H1.2V1H98.9 M99.9,0H0.2v99.7h99.7V0L99.9,0z"/>
</g>
<g id="Terrain">
	<g>
		<g>
			<path d="M70.4,40.2H29.6c-3.3,0-6-2.7-6-6V18c0-3.3,2.7-6,6-6h40.9c3.3,0,6,2.7,6,6v16.2C76.4,37.5,73.7,40.2,70.4,40.2z
				 M29.6,14c-2.2,0-4,1.8-4,4v16.2c0,2.2,1.8,4,4,4h40.9c2.2,0,4-1.8,4-4V18c0-2.2-1.8-4-4-4H29.6z"/>
		</g>
		<g>
			<rect x="48" y="39.1" width="4" height="37.6"/>
		</g>
		<text transform="matrix(1 0 0 1 36.4454 35.6665)" font-family="'MyriadPro-Regular'" font-size="10">Ahead</text>
		<text transform="matrix(1 0 0 1 26.473 26)" font-family="'MyriadPro-Regular'" font-size="14">CHUTES</text>
	</g>
	<text transform="matrix(1 0 0 1 29.6444 92.7293)" font-family="'MyriadPro-Regular'" font-size="14">Chutes</text>
</g>
</svg>
