<?xml version="1.0" encoding="utf-8"?>
<!-- Generator: Adobe Illustrator 18.1.0, SVG Export Plug-In . SVG Version: 6.00 Build 0)  -->
<svg version="1.1" id="Layer_1" xmlns="http://www.w3.org/2000/svg" xmlns:xlink="http://www.w3.org/1999/xlink" x="0px" y="0px"
	 viewBox="0 0 100 100" enable-background="new 0 0 100 100" xml:space="preserve">
<g id="Boundary">
	<path d="M98.8,1v97.7H1.1V1H98.8 M99.8,0H0.2v99.7h99.7V0L99.8,0z"/>
</g>
<g id="Tram">
	<path fill="#050505" stroke="#000000" d="M48.4,14.8c0,3.1-2.5,5.5-5.5,5.5c-3.1,0-5.5-2.5-5.5-5.5s2.5-5.5,5.5-5.5
		C45.8,9.3,48.4,11.8,48.4,14.8z"/>
	<circle fill="#050505" stroke="#000000" cx="54.8" cy="10.8" r="5.5"/>
	<g>
		<polygon points="12.1,31.7 87.8,7 87.8,10.1 12.2,35.2 		"/>
	</g>
	<g>
		<rect x="48.8" y="21.1" width="2.4" height="20.7"/>
	</g>
	<g opacity="0.88">
		<g>
			<path d="M14.5,64.8v6.9c0,2.2,1.7,3.9,3.9,3.9h60.4c2.2,0,3.9-1.7,3.9-3.9v-6.9H14.5z"/>
		</g>
		<g>
			<path fill="none" stroke="#000000" d="M14.5,64.8v6.9c0,2.2,1.7,3.9,3.9,3.9h60.4c2.2,0,3.9-1.7,3.9-3.9v-6.9H14.5z"/>
		</g>
	</g>
	<g>
		<path fill="#020202" d="M82.8,59.5c-0.3-1.3-2.6-10.3-2.9-10.9c-0.3-0.7-1.5-3.9-4.1-3.9s-53.9,0-53.9,0c-2.2,0-3.4,1-4.3,3.9
			c-0.9,2.7-2.6,9.7-2.9,10.9l0,0v3.2h68.2L82.8,59.5L82.8,59.5z M30.7,59.5H18.1l2.2-10.8h10.4C30.8,48.7,30.8,59.5,30.7,59.5z
			 M62.5,59.6H34.5V48.8h28.1V59.6z M66.4,59.5V48.8h10.4L79,59.6L66.4,59.5L66.4,59.5z"/>
	</g>
</g>
<text transform="matrix(1 0 0 1 17.4853 93.3337)" font-family="'MyriadPro-Regular'" font-size="14">Aerial Tram</text>
</svg>
