<?xml version="1.0" encoding="utf-8"?>
<!-- Generator: Adobe Illustrator 18.1.0, SVG Export Plug-In . SVG Version: 6.00 Build 0)  -->
<svg version="1.1" id="Icons" xmlns="http://www.w3.org/2000/svg" xmlns:xlink="http://www.w3.org/1999/xlink" x="0px" y="0px"
	 viewBox="0 0 100 100" enable-background="new 0 0 100 100" xml:space="preserve">
<g id="Boundary">
	<path d="M98.9,1v97.7H1.2V1H98.9 M99.9,0H0.2v99.7h99.7V0L99.9,0z"/>
</g>
<g id="Wheel">
	<g>
		<g id="wheel">
			<path fill="#8B8588" d="M49,19.4V8.1c-8.6,0.2-16.4,3.7-22.3,9.2l8,8C38.5,21.8,43.5,19.6,49,19.4"/>
			<path fill="#8B8588" d="M33.3,26.7l-8-8c-5.5,5.8-9,13.7-9.2,22.3h11.3C27.6,35.5,29.8,30.5,33.3,26.7"/>
			<path fill="#FBB03B" d="M65.3,25.3l8-8c-5.8-5.5-13.7-9-22.3-9.2v11.3C56.5,19.6,61.5,21.8,65.3,25.3"/>
			<path fill="#FBB03B" d="M72.6,41h11.3c-0.2-8.6-3.7-16.4-9.2-22.3l-8,8C70.2,30.5,72.4,35.5,72.6,41"/>
			<path fill="#8B8588" d="M66.7,57.3l8,8c5.5-5.8,9-13.7,9.2-22.3H72.6C72.4,48.5,70.2,53.5,66.7,57.3"/>
			<path fill="#8B8588" d="M51,64.6v11.3c8.6-0.2,16.4-3.7,22.3-9.2l-8-8C61.5,62.1,56.5,64.3,51,64.6"/>
			<path fill="#8B8588" d="M27.4,43H16.1c0.2,8.6,3.7,16.4,9.2,22.3l8-8C29.8,53.5,27.6,48.5,27.4,43"/>
			<path fill="#8B8588" d="M34.7,58.7l-8,8c5.8,5.5,13.7,9,22.3,9.2V64.6C43.5,64.3,38.5,62.1,34.7,58.7"/>
		</g>
		<text transform="matrix(1 0 0 1 12.6201 92.7293)" font-family="'MyriadPro-Regular'" font-size="14">Competency</text>
	</g>
	<text transform="matrix(1 0 0 1 33.6382 47.25)" font-family="'MyriadPro-Regular'" font-size="18">25%</text>
</g>
</svg>
